/* XPM */
static char * ench6P_xpm[] = {
"26 16 15 1",
" 	c None",
".	c #969296",
"+	c #000000",
"@	c #000400",
"#	c #080808",
"$	c #101010",
"%	c #282C28",
"&	c #717571",
"*	c #080C08",
"=	c #181C18",
"-	c #303430",
";	c #303030",
">	c #202420",
",	c #494949",
"'	c #181818",
"                          ",
"                 ..       ",
"    +++++        ++       ",
"   ++           ++++      ",
"  ++           @++++@     ",
" ++           #++++++#    ",
" ++ ++++     $++++++++$   ",
" +++   ++   %++++++++++%  ",
" +++    ++ &++++++++++++  ",
" ++     ++ *++++++++++++* ",
" ++     ++ =+++@-++;++++> ",
" ++     ++  #*,  ++  -@$  ",
"  ++    ++       ''       ",
"  ++   ++        ==       ",
"   +++++         ++       ",
"                          "};
