/* XPM */
static char * ench5N_xpm[] = {
"26 16 2 1",
" 	c None",
".	c #000000",
"                          ",
"                          ",
"   .......   .  . .....   ",
"   ..        .  .   .     ",
"   ..        .. .   .     ",
"   ..        .. .   .     ",
"   ......    .. .   .     ",
"   .    ..   ....   .     ",
"         ..  . ..   .     ",
"         ..  . ..   .     ",
"         ..  . ..   .     ",
"         ..  .  .   .     ",
"         ..  .  .   .     ",
"  .     ..   .  .   .     ",
"  ......     .  .   .     ",
"                          "};
