/* XPM */
static char * ench7TK_xpm[] = {
"26 16 4 1",
" 	c None",
".	c #E70400",
"+	c #E71C18",
"@	c #E70C08",
"                          ",
"                ..        ",
"  ........     ....       ",
"        ..    ......      ",
"        .     ......      ",
"       ..    +......+     ",
"       ..   @........@    ",
"      ..   @..........@   ",
"      ..   @..........@   ",
"      ..    @........@    ",
"     ..      +......+     ",
"     ..       ......      ",
"     .        ......      ",
"    ..         ....       ",
"    ..          ..        ",
"                          "};
