/* XPM */
static char * ench5C_xpm[] = {
"26 16 2 1",
" 	c None",
".	c #C12521",
"                          ",
"                          ",
"  .......   ....    ....  ",
"  ..       ......  ...... ",
"  ..      ................",
"  ..      ................",
"  ......  ................",
"  .    .. ................",
"        .. .............. ",
"        .. .............. ",
"        ..  ............  ",
"        ..   ..........   ",
"        ..    ........    ",
" .     ..       ....      ",
" ......          ..       ",
"                          "};
