/* XPM */
static char * ench4N_xpm[] = {
"26 16 2 1",
" 	c None",
".	c #000000",
"                          ",
"                          ",
"       ...   .  . .....   ",
"       ...   .  .   .     ",
"      . ..   .. .   .     ",
"     .. ..   .. .   .     ",
"     .  ..   .. .   .     ",
"    ..  ..   ....   .     ",
"    .   ..   . ..   .     ",
"   ..   ..   . ..   .     ",
"  ..    ..   . ..   .     ",
"  .......... .  .   .     ",
"        ..   .  .   .     ",
"        ..   .  .   .     ",
"        ..   .  .   .     ",
"                          "};
