/* XPM */
static char * ench5T_xpm[] = {
"26 16 10 1",
" 	c None",
".	c #9E9A9E",
"+	c #282828",
"@	c #0B6B0B",
"#	c #696969",
"$	c #414141",
"%	c #494D49",
"&	c #616561",
"*	c #686968",
"=	c #2B6A2B",
"                          ",
"               .+@+.      ",
"   @@@@@@@    .@@@@@.     ",
"   @@         +@@@@@+     ",
"   @@         @@@@@@@     ",
"   @@         +@@@@@+     ",
"   @@@@@@  #@@$@@@@@%@@&  ",
"   @   @@@*@@@@$@@@%@@@@& ",
"        @@@@@@@@@@@@@@@@@ ",
"         @@@@@@@@@@@@@@@@ ",
"         @=@@@@#@@@&@@@@& ",
"         @@#@@# @@@ &@@&  ",
"        @@      @@@       ",
"  @@   @@@     %@@@%      ",
"  @@@@@@      %@@@@@%     ",
"                          "};
