/* XPM */
static char * enchXX_xpm[] = {
"26 16 2 1",
" 	c None",
".	c #141494",
"                          ",
"                          ",
"  ..      ..  ..      ..  ",
"   ..    ..    ..    ..   ",
"    ..   ..     ..   ..   ",
"    ..  ..      ..  ..    ",
"     ....        ....     ",
"      ...         ...     ",
"      ..          ..      ",
"     ....        ....     ",
"    ..  ..      ..  ..    ",
"    ..  ..      ..  ..    ",
"   ..    ..    ..    ..   ",
"   .      ..   .      ..  ",
"  ..      ..  ..      ..  ",
"                          "};
