/* XPM */
static char * enchPP_xpm[] = {
"26 16 2 1",
" 	c None",
".	c #0B6B0B",
"                          ",
"                          ",
"         ......           ",
"         ..   ..          ",
"         ..    ..         ",
"         ..    ..         ",
"         ..    ..         ",
"         ..    ..         ",
"         ..   ..          ",
"         ......           ",
"         ..               ",
"         ..               ",
"         ..               ",
"         ..               ",
"         ..               ",
"                          "};
