/* XPM */
static char * enchXP_xpm[] = {
"26 16 2 1",
" 	c None",
".	c #E70400",
"                          ",
"                          ",
"        ..      ..        ",
"         ..    ..         ",
"          ..   ..         ",
"          ..  ..          ",
"           ....           ",
"            ...           ",
"            ..            ",
"           ....           ",
"          ..  ..          ",
"          ..  ..          ",
"         ..    ..         ",
"         .      ..        ",
"        ..      ..        ",
"                          "};
