/* XPM */
static char * icon_club_xpm[] = {
"16 16 9 1",
" 	c None",
".	c #9E9A9E",
"+	c #282828",
"@	c #000000",
"#	c #696969",
"$	c #080C08",
"%	c #414141",
"&	c #494D49",
"*	c #616561",
"                ",
"     .+@+.      ",
"    .@@@@@.     ",
"    +@@@@@+     ",
"    @@@@@@@     ",
"    +@@@@@+     ",
" #$$%@@@@@&@@*  ",
"#@@@@%@@@&@@@@* ",
"$@@@@$@@@@@@@@@ ",
"$@@@@$@@@@@@@@@ ",
"#@@@@#@@@*@@@@* ",
" #$$# @@@ *@@*  ",
"      @@@       ",
"     &@@@&      ",
"    &@@@@@&     ",
"                "};
