/* XPM */
static char * icon_diamond_xpm[] = {
"16 16 4 1",
" 	c None",
".	c #E70400",
"+	c #E71C18",
"@	c #E70C08",
"                ",
"       ..       ",
"      ....      ",
"     ......     ",
"     ......     ",
"    +......+    ",
"   @........@   ",
"  @..........@  ",
"  @..........@  ",
"   @........@   ",
"    +......+    ",
"     ......     ",
"     ......     ",
"      ....      ",
"       ..       ",
"                "};
