/* XPM */
static char * icon_heart_xpm[] = {
"16 16 2 1",
" 	c None",
".	c #E70400",
"                ",
"  ....    ....  ",
" ......  ...... ",
"................",
"................",
"................",
"................",
" .............. ",
" .............. ",
"  ............  ",
"   ..........   ",
"    ........    ",
"      ....      ",
"       ..       ",
"                ",
"                "};
